<svg width="223" height="233" viewBox="0 0 223 233" fill="none" xmlns="http://www.w3.org/2000/svg">
<g clip-path="url(#clip0_1_18890)">
<path fill-rule="evenodd" clip-rule="evenodd" d="M111.5 212.581C161.848 212.581 202.662 171.766 202.662 121.418C202.662 71.0704 161.848 30.2555 111.5 30.2555C61.1522 30.2555 20.3374 71.0704 20.3374 121.418C20.3374 171.766 61.1522 212.581 111.5 212.581Z" stroke="#3AD29F" stroke-width="0.613889" stroke-dasharray="3.68 3.68"/>
<path fill-rule="evenodd" clip-rule="evenodd" d="M111.5 231.918C172.527 231.918 222 182.445 222 121.418C222 60.3905 172.527 10.918 111.5 10.918C50.4725 10.918 1 60.3905 1 121.418C1 182.445 50.4725 231.918 111.5 231.918Z" stroke="#3AD29F" stroke-width="0.613889" stroke-dasharray="3.68 3.68"/>
<path d="M185.455 156.621C185.458 143.756 175.67 133.002 162.862 131.798C150.053 130.593 138.432 139.334 136.037 151.974L59.4268 149.896L60.2678 163.058C60.2678 163.058 49.3436 188.264 106.758 194.98V220.457H173.131V178.098C180.758 173.632 185.448 165.46 185.455 156.621Z" fill="url(#paint0_linear_1_18890)"/>
<path d="M62.8985 163.611C62.8985 163.611 52.4378 187.749 107.421 194.188V218.597H170.986V153.957L62.082 151.004L62.8985 163.611Z" fill="#BE7C5E"/>
<path d="M94.6674 62.8806C91.217 68.3253 84.0173 69.9613 78.5528 66.5425L44.4237 44.0527C38.979 40.6023 37.343 33.4026 40.7618 27.9381C44.2117 22.5009 51.4022 20.8657 56.8641 24.2762L90.9933 46.7661C96.4422 50.2124 98.084 57.413 94.6674 62.8806Z" fill="url(#paint1_linear_1_18890)"/>
<path d="M92.7766 61.6529C89.5694 66.7138 82.8772 68.2346 77.7977 65.0569L46.0628 44.1355C41.0019 40.9283 39.481 34.2361 42.6587 29.1567C45.8659 24.0958 52.5582 22.5749 57.6376 25.7526L89.3665 46.6617C94.437 49.8674 95.9615 56.5693 92.7766 61.6529Z" fill="#BE7C5E"/>
<path d="M158.92 181.315C172.104 181.315 182.791 170.628 182.791 157.444C182.791 144.26 172.104 133.573 158.92 133.573C145.736 133.573 135.049 144.26 135.049 157.444C135.049 170.628 145.736 181.315 158.92 181.315Z" fill="#BE7C5E"/>
<path d="M154.622 0H63.1775C61.1009 0 59.4175 1.68344 59.4175 3.76007V174.869C59.4175 176.946 61.1009 178.629 63.1775 178.629H154.622C156.699 178.629 158.383 176.946 158.383 174.869V3.76007C158.383 1.68344 156.699 0 154.622 0Z" fill="url(#paint2_linear_1_18890)"/>
<path d="M152.855 2.41565H64.9397C62.6274 2.41565 60.7529 4.29011 60.7529 6.60237V172.033C60.7529 174.345 62.6274 176.22 64.9397 176.22H152.855C155.167 176.22 157.041 174.345 157.041 172.033V6.60237C157.041 4.29011 155.167 2.41565 152.855 2.41565Z" fill="white"/>
<path d="M133.087 6.77426C132.512 10.5828 129.244 13.4022 125.392 13.4135H92.1379C88.2872 13.4007 85.0212 10.5817 84.4458 6.77426H66.8272C65.8572 6.77426 64.9265 7.15824 64.2403 7.84391C63.554 8.52958 63.1685 9.45989 63.1685 10.43V168.199C63.1685 169.17 63.5524 170.1 64.2381 170.786C64.9238 171.473 65.8541 171.858 66.8242 171.858H150.97C151.94 171.858 152.871 171.474 153.557 170.789C154.243 170.103 154.629 169.173 154.629 168.202V10.433C154.629 9.46295 154.245 8.53232 153.559 7.84608C152.873 7.15984 151.943 6.77426 150.973 6.77426H133.087Z" fill="#4A59B7"/>
<path d="M119.149 8.85228H98.9186C98.5795 8.85228 98.3047 9.12713 98.3047 9.46617V9.57974C98.3047 9.91878 98.5795 10.1936 98.9186 10.1936H119.149C119.488 10.1936 119.763 9.91878 119.763 9.57974V9.46617C119.763 9.12713 119.488 8.85228 119.149 8.85228Z" fill="#DBDBDB"/>
<path d="M124.321 10.3894C124.874 10.3894 125.321 9.94172 125.321 9.38943C125.321 8.83715 124.874 8.38943 124.321 8.38943C123.769 8.38943 123.321 8.83715 123.321 9.38943C123.321 9.94172 123.769 10.3894 124.321 10.3894Z" fill="#DBDBDB"/>
<path d="M174.35 161.655C167.422 163.258 162.667 158.739 161.065 151.815L145.147 92.7064C143.563 85.7549 147.889 78.8289 154.831 77.2027C161.783 75.6188 168.709 79.945 170.335 86.8868L183.325 147.521C184.927 154.448 181.274 160.053 174.35 161.655Z" fill="url(#paint3_linear_1_18890)"/>
<path d="M168.549 88.3337C167.198 82.4883 161.365 78.8446 155.519 80.1952C149.674 81.5458 146.03 87.3792 147.381 93.2246L162.018 156.576C163.369 162.421 169.202 166.065 175.048 164.714C180.893 163.364 184.537 157.53 183.186 151.685L168.549 88.3337Z" fill="#BE7C5E"/>
<path d="M182.69 210.61H91.834V231.789H182.69V210.61Z" fill="url(#paint4_linear_1_18890)"/>
<path d="M180.234 213.065H94.2896V229.64H180.234V213.065Z" fill="#404893"/>
<path d="M81.4192 126.289C78.0108 131.669 70.8971 133.286 65.498 129.908L42.6092 115.098C37.2293 111.69 35.6123 104.576 38.9903 99.1768C42.3988 93.7969 49.5124 92.18 54.9115 95.5579L77.8004 110.368C83.1803 113.776 84.7972 120.89 81.4192 126.289Z" fill="url(#paint5_linear_1_18890)"/>
<path d="M75.6736 157.637C72.2348 163.067 65.0563 164.699 59.6081 161.29L45.4304 150.952C40.0011 147.513 38.369 140.335 41.7777 134.887C45.2165 129.457 52.3949 127.825 57.8432 131.234L72.0209 141.575C77.4484 145.014 79.0802 152.19 75.6736 157.637Z" fill="url(#paint6_linear_1_18890)"/>
<g opacity="0.5">
<path opacity="0.5" d="M108.897 116.924C124.144 116.924 136.504 104.564 136.504 89.3178C136.504 74.0711 124.144 61.7112 108.897 61.7112C93.6504 61.7112 81.2905 74.0711 81.2905 89.3178C81.2905 104.564 93.6504 116.924 108.897 116.924Z" fill="url(#paint7_linear_1_18890)"/>
</g>
<path d="M108.897 115.301C123.247 115.301 134.88 103.668 134.88 89.3178C134.88 74.9678 123.247 63.3349 108.897 63.3349C94.547 63.3349 82.9141 74.9678 82.9141 89.3178C82.9141 103.668 94.547 115.301 108.897 115.301Z" fill="#69F0AE"/>
<path d="M97.62 85.8493L107.362 94.7814L121.166 74.4831L126.04 78.544L107.362 102.903L93.5591 87.4761L97.62 85.8493Z" fill="white"/>
<path d="M74.5285 156.867C71.3213 161.928 64.6291 163.449 59.5496 160.271L46.3264 150.645C41.2655 147.438 39.7447 140.746 42.9224 135.666C46.1296 130.605 52.8218 129.085 57.9013 132.262L71.1214 141.907C76.1722 145.112 77.6931 151.791 74.5285 156.867Z" fill="#BE7C5E"/>
<path d="M80.1609 125.476C76.9536 130.537 70.2614 132.058 65.182 128.88L43.6467 114.945C38.5858 111.737 37.065 105.045 40.2427 99.9657C43.4499 94.9048 50.1422 93.3839 55.2216 96.5616L76.7568 110.497C81.8177 113.704 83.3386 120.396 80.1609 125.476Z" fill="#BE7C5E"/>
<path d="M87.3372 95.0883C83.9119 100.492 76.7662 102.115 71.3423 98.7225L42.3361 79.8363C36.9326 76.411 35.309 69.2653 38.7019 63.8414C42.1271 58.4379 49.2728 56.8143 54.6967 60.2072L83.703 79.0934C89.1065 82.5187 90.7301 89.6644 87.3372 95.0883Z" fill="url(#paint8_linear_1_18890)"/>
<path d="M85.7967 94.1061C82.5895 99.167 75.8973 100.688 70.8178 97.5101L43.6502 79.8209C38.5893 76.6137 37.0684 69.9215 40.2461 64.842C43.4533 59.7811 50.1456 58.2603 55.225 61.438L82.3896 79.1272C87.4516 82.3334 88.9738 89.0258 85.7967 94.1061Z" fill="#BE7C5E"/>
</g>
<defs>
<linearGradient id="paint0_linear_1_18890" x1="122.446" y1="220.472" x2="122.446" y2="131.691" gradientUnits="userSpaceOnUse">
<stop stop-color="#808080" stop-opacity="0.25"/>
<stop offset="0.54" stop-color="#808080" stop-opacity="0.12"/>
<stop offset="1" stop-color="#808080" stop-opacity="0.1"/>
</linearGradient>
<linearGradient id="paint1_linear_1_18890" x1="67.7115" y1="68.332" x2="67.7115" y2="22.4929" gradientUnits="userSpaceOnUse">
<stop stop-color="#808080" stop-opacity="0.25"/>
<stop offset="0.54" stop-color="#808080" stop-opacity="0.12"/>
<stop offset="1" stop-color="#808080" stop-opacity="0.1"/>
</linearGradient>
<linearGradient id="paint2_linear_1_18890" x1="108.9" y1="178.626" x2="108.9" y2="-0.00306638" gradientUnits="userSpaceOnUse">
<stop stop-color="#808080" stop-opacity="0.25"/>
<stop offset="0.54" stop-color="#808080" stop-opacity="0.12"/>
<stop offset="1" stop-color="#808080" stop-opacity="0.1"/>
</linearGradient>
<linearGradient id="paint3_linear_1_18890" x1="164.257" y1="161.975" x2="164.257" y2="76.8712" gradientUnits="userSpaceOnUse">
<stop stop-color="#808080" stop-opacity="0.25"/>
<stop offset="0.54" stop-color="#808080" stop-opacity="0.12"/>
<stop offset="1" stop-color="#808080" stop-opacity="0.1"/>
</linearGradient>
<linearGradient id="paint4_linear_1_18890" x1="137.268" y1="231.783" x2="137.268" y2="210.604" gradientUnits="userSpaceOnUse">
<stop stop-color="#808080" stop-opacity="0.25"/>
<stop offset="0.54" stop-color="#808080" stop-opacity="0.12"/>
<stop offset="1" stop-color="#808080" stop-opacity="0.1"/>
</linearGradient>
<linearGradient id="paint5_linear_1_18890" x1="60.2002" y1="131.673" x2="60.2002" y2="93.7961" gradientUnits="userSpaceOnUse">
<stop stop-color="#808080" stop-opacity="0.25"/>
<stop offset="0.54" stop-color="#808080" stop-opacity="0.12"/>
<stop offset="1" stop-color="#808080" stop-opacity="0.1"/>
</linearGradient>
<linearGradient id="paint6_linear_1_18890" x1="58.7272" y1="163.07" x2="58.7272" y2="129.451" gradientUnits="userSpaceOnUse">
<stop stop-color="#808080" stop-opacity="0.25"/>
<stop offset="0.54" stop-color="#808080" stop-opacity="0.12"/>
<stop offset="1" stop-color="#808080" stop-opacity="0.1"/>
</linearGradient>
<linearGradient id="paint7_linear_1_18890" x1="108.897" y1="116.924" x2="108.897" y2="61.7081" gradientUnits="userSpaceOnUse">
<stop stop-color="#808080" stop-opacity="0.25"/>
<stop offset="0.54" stop-color="#808080" stop-opacity="0.12"/>
<stop offset="1" stop-color="#808080" stop-opacity="0.1"/>
</linearGradient>
<linearGradient id="paint8_linear_1_18890" x1="63.018" y1="100.506" x2="63.018" y2="58.4453" gradientUnits="userSpaceOnUse">
<stop stop-color="#808080" stop-opacity="0.25"/>
<stop offset="0.54" stop-color="#808080" stop-opacity="0.12"/>
<stop offset="1" stop-color="#808080" stop-opacity="0.1"/>
</linearGradient>
<clipPath id="clip0_1_18890">
<rect width="223" height="233" fill="white"/>
</clipPath>
</defs>
</svg>
